<svg xmlns="http://www.w3.org/2000/svg"
    xmlns:xlink="http://www.w3.org/1999/xlink" viewBox="0 0 20 20">
    <!--
    Fluent System Icons: CommentError20Regular
    MIT License

    Copyright (c) Microsoft Corporation

    Permission is hereby granted, free of charge, to any person obtaining a copy
    of this software and associated documentation files (the "Software"), to deal
    in the Software without restriction, including without limitation the rights
    to use, copy, modify, merge, publish, distribute, sublicense, and/or sell
    copies of the Software, and to permit persons to whom the Software is
    furnished to do so, subject to the following conditions:

    The above copyright notice and this permission notice shall be included in all
    copies or substantial portions of the Software.

    THE SOFTWARE IS PROVIDED "AS IS", WITHOUT WARRANTY OF ANY KIND, EXPRESS OR
    IMPLIED, INCLUDING BUT NOT LIMITED TO THE WARRANTIES OF MERCHANTABILITY,
    FITNESS FOR A PARTICULAR PURPOSE AND NONINFRINGEMENT. IN NO EVENT SHALL THE
    AUTHORS OR COPYRIGHT HOLDERS BE LIABLE FOR ANY CLAIM, DAMAGES OR OTHER
    LIABILITY, WHETHER IN AN ACTION OF CONTRACT, TORT OR OTHERWISE, ARISING FROM,
    OUT OF OR IN CONNECTION WITH THE SOFTWARE OR THE USE OR OTHER DEALINGS IN THE
    SOFTWARE.
    -->

    <metadata>
        Fluent System Icons: CommentError20Regular (Microsoft) — MIT License.
        Full MIT license text is included in the comment above.
    </metadata>
    <g fill="none">
        <path d="M19 5.5a4.5 4.5 0 1 1-9 0a4.5 4.5 0 0 1 9 0zM14.5 3a.5.5 0 0 0-.5.5v2a.5.5 0 0 0 1 0v-2a.5.5 0 0 0-.5-.5zm0 5.125a.625.625 0 1 0 0-1.25a.625.625 0 0 0 0 1.25zM17 10.4v1.876c0 .853-.704 1.566-1.6 1.566h-4.92L6.206 17h-.002L6.2 17v-3.158H4.6c-.896 0-1.6-.713-1.6-1.566v-6.71C3 4.713 3.704 4 4.6 4h4.607c.099-.349.23-.683.393-1h-5C3.164 3 2 4.149 2 5.566v6.71c0 1.418 1.164 2.566 2.6 2.566h.6v2.171c0 .213.07.42.2.591c.33.437.957.526 1.399.2l4.011-2.962h4.59c1.436 0 2.6-1.149 2.6-2.566V9.743a5.507 5.507 0 0 1-1 .657z" fill="currentColor"></path>
    </g>
</svg>